<?xml version="1.0" encoding="UTF-8" standalone="no"?>
<!-- Created with Inkscape (http://www.inkscape.org/) -->

<svg
   width="456"
   height="456"
   viewBox="0 0 456 456"
   version="1.1"
   id="svg11531"
   inkscape:version="1.2.1 (9c6d41e410, 2022-07-14)"
   sodipodi:docname="appicon.svg"
   xmlns:inkscape="http://www.inkscape.org/namespaces/inkscape"
   xmlns:sodipodi="http://sodipodi.sourceforge.net/DTD/sodipodi-0.dtd"
   xmlns="http://www.w3.org/2000/svg"
   xmlns:svg="http://www.w3.org/2000/svg"
   xmlns:rdf="http://www.w3.org/1999/02/22-rdf-syntax-ns#"
   xmlns:cc="http://creativecommons.org/ns#"
   xmlns:dc="http://purl.org/dc/elements/1.1/">
  <defs
     id="defs11525" />
  <sodipodi:namedview
     id="base"
     pagecolor="#ffffff"
     bordercolor="#666666"
     borderopacity="1.0"
     inkscape:pageopacity="0.0"
     inkscape:pageshadow="2"
     inkscape:zoom="2.8284271"
     inkscape:cx="192.86337"
     inkscape:cy="133.28963"
     inkscape:document-units="mm"
     inkscape:current-layer="layer1"
     showgrid="false"
     inkscape:window-width="1920"
     inkscape:window-height="1009"
     inkscape:window-x="-8"
     inkscape:window-y="-8"
     inkscape:window-maximized="1"
     fit-margin-top="0"
     fit-margin-left="0"
     fit-margin-right="0"
     fit-margin-bottom="0"
     inkscape:showpageshadow="2"
     inkscape:pagecheckerboard="0"
     inkscape:deskcolor="#d1d1d1" />
  <metadata
     id="metadata11528">
    <rdf:RDF>
      <cc:Work
         rdf:about="">
        <dc:format>image/svg+xml</dc:format>
        <dc:type
           rdf:resource="http://purl.org/dc/dcmitype/StillImage" />
        <dc:title />
      </cc:Work>
    </rdf:RDF>
  </metadata>
  <g
     inkscape:label="Calque 1"
     inkscape:groupmode="layer"
     id="layer1"
     transform="translate(-0.99262638,-1.174181)">
    <g
       id="g70"
       transform="matrix(25.660143,0,0,26.444528,403.24417,-99.740529)">
      <path
         inkscape:export-ydpi="250.55"
         inkscape:export-xdpi="250.55"
         inkscape:export-filename="new.png"
         inkscape:connector-curvature="0"
         id="path3055"
         d="m -6.8492015,4.2724668 a 1.1191255,1.1099671 0 0 0 -0.4288818,0.1085303 l -5.8524037,2.7963394 a 1.1191255,1.1099671 0 0 0 -0.605524,0.7529759 l -1.443828,6.2812846 a 1.1191255,1.1099671 0 0 0 0.151943,0.851028 1.1191255,1.1099671 0 0 0 0.06362,0.08832 l 4.0508,5.036555 a 1.1191255,1.1099671 0 0 0 0.874979,0.417654 l 6.4961011,-0.0015 a 1.1191255,1.1099671 0 0 0 0.8749788,-0.416906 L 1.3818872,15.149453 A 1.1191255,1.1099671 0 0 0 1.5981986,14.210104 L 0.15212657,7.9288154 A 1.1191255,1.1099671 0 0 0 -0.45339794,7.1758396 L -6.3065496,4.3809971 A 1.1191255,1.1099671 0 0 0 -6.8492015,4.2724668 Z"
         style="fill:#326ce5;fill-opacity:1;stroke:none;stroke-width:0;stroke-miterlimit:4;stroke-dasharray:none;stroke-opacity:1" />
    </g>
    <path
       id="path1984"
       d="m 228.53661,101.12608 c -3.49733,-0.11465 -101.01632,49.2933 -102.29135,51.82717 -3.0632,6.08895 -25.25342,111.56066 -23.94961,113.83399 0.75851,1.31977 16.74284,22.20816 35.51265,46.40081 l 34.12789,43.97709 56.16962,0.0287 56.16957,0.0287 35.7213,-46.01029 35.74812,-45.99677 -12.50431,-56.51307 c -6.88223,-31.07875 -13.03729,-57.01911 -13.6661,-57.64421 -1.75721,-1.74267 -99.14194,-49.8655 -101.03778,-49.92858 z m 5.97117,51.66562 c 4.71887,0.20845 5.20318,7.59734 15.29987,8.37529 13.18798,1.0162 11.76977,-11.6382 21.8591,-2.82772 10.08931,8.81039 -2.24772,9.44919 0.88847,22.68875 3.13746,13.23945 14.3814,7.94983 9.3682,20.56121 -5.01323,12.61144 -9.42104,0.71082 -20.66968,7.87711 -11.24865,7.16616 -2.89661,16.55494 -16.08393,15.53876 -13.18929,-1.0162 -3.55152,-9.01727 -13.64081,-17.82783 -10.08931,-8.81056 -16.18759,2.27891 -19.32436,-10.96064 -3.13745,-13.23956 7.2295,-6.28008 12.24273,-18.89151 5.02389,-12.61261 -7.1071,-15.14547 4.14221,-22.31171 1.40679,-0.89478 2.57617,-1.4821 3.59296,-1.83125 0.88695,-0.30408 1.65178,-0.42056 2.32534,-0.39007 z m 13.18527,14.9059 c -1.916,-0.0138 -3.82312,0.26604 -5.65743,0.83485 -10.12342,3.14587 -15.85172,14.15711 -12.79125,24.58733 3.05781,10.42054 13.73183,16.31529 23.84523,13.16883 10.10939,-3.14623 15.83438,-14.13858 12.79126,-24.56038 -2.42092,-8.2813 -9.79564,-13.97034 -18.18781,-14.03058 z m -75.66521,33.91857 c 1.00351,0.0206 2.23306,0.23451 3.74955,0.71369 12.13436,3.83391 -0.19468,10.40968 8.45371,19.98224 8.64837,9.57259 15.89127,-2.63395 18.73637,10.11233 2.8451,12.74628 -8.84908,5.02686 -12.56919,17.53157 -3.72078,12.50465 10.15088,12.87411 0.86243,21.7865 -9.28858,8.91242 -8.64235,-5.36922 -21.0095,-2.43707 -12.36848,2.93207 -5.74038,15.49465 -17.87406,11.66074 -12.13435,-3.83389 0.19469,-10.40961 -8.4537,-19.98217 -8.6484,-9.57264 -15.89127,2.62054 -18.73637,-10.12577 -2.84512,-12.74636 8.84907,-5.02694 12.56916,-17.53154 3.7208,-12.50474 -10.16356,-12.86075 -0.87506,-21.77314 9.28857,-8.91247 8.65438,5.36935 21.02221,2.43733 10.82251,-2.56553 7.09569,-12.49691 14.12451,-12.37442 z m 90.19244,13.66709 c 1.15066,0.014 2.54878,0.32389 4.29879,1.02325 13.98871,5.59536 -4.43057,14.22412 6.41536,24.91042 10.84592,10.68627 18.39318,-8.67009 24.44597,5.4803 6.05214,14.15042 -12.90566,6.83808 -12.56918,22.29826 0.3345,15.46017 18.95243,7.26249 13.52246,21.67881 -5.42864,14.41627 -13.80207,-4.56634 -24.17102,6.61134 -10.36963,11.17767 8.3995,18.9424 -5.33099,25.17972 -13.73049,6.23743 -6.60871,-13.28726 -21.61089,-12.93993 -15.00153,0.34733 -7.05959,19.51825 -21.04894,13.92292 -13.98803,-5.59537 4.4312,-14.22413 -6.41536,-24.91046 -10.84593,-10.68632 -18.38047,8.67007 -24.43261,-5.4803 -6.05211,-14.15041 12.89229,-6.82455 12.55647,-22.28473 -0.34107,-15.46018 -18.95243,-7.27601 -13.52312,-21.69234 5.42933,-14.4163 13.8148,4.57978 24.18443,-6.59789 10.36892,-11.17765 -8.41359,-18.95582 5.31759,-25.19314 13.73044,-6.23735 6.62206,13.28726 21.62356,12.93993 13.1271,-0.30408 8.68316,-15.01922 16.73748,-14.94626 z m -98.1364,6.65173 c -10.56828,-0.004 -19.13839,8.82182 -19.14173,19.71294 -0.004,10.8964 8.56877,19.73054 19.14173,19.7264 10.56766,-0.004 19.13172,-8.83566 19.12773,-19.7264 -0.003,-10.88547 -8.56543,-19.70909 -19.12773,-19.71294 z m 82.26188,18.89156 c -15.56677,0.001 -28.18744,13.00179 -28.19613,29.04426 -0.006,16.05299 12.61932,29.07002 28.19613,29.07111 15.58153,0.006 28.21426,-13.0133 28.20824,-29.07111 0,-16.04737 -12.63674,-29.05004 -28.20824,-29.04426 z"
       style="opacity:1;fill:#ffffff;fill-opacity:1;stroke:#eeeeee;stroke-width:0;stroke-miterlimit:10;stroke-dasharray:none;stroke-dashoffset:11.2364;stroke-opacity:1"
       inkscape:connector-curvature="0"
       sodipodi:nodetypes="cccccccccccccscccccsccccccccccccccscscccccccccccccccccccccscccccccccccccc" />
  </g>
</svg>
