<?xml version="1.0" standalone="no"?>
<!DOCTYPE svg PUBLIC "-//W3C//DTD SVG 20010904//EN"
 "http://www.w3.org/TR/2001/REC-SVG-20010904/DTD/svg10.dtd">
<svg version="1.0" xmlns="http://www.w3.org/2000/svg"
 width="1024.000000pt" height="1024.000000pt" viewBox="0 0 1024.000000 1024.000000"
 preserveAspectRatio="xMidYMid meet">
<metadata>
Created by potrace 1.11, written by Peter Selinger 2001-2013
</metadata>
<g transform="translate(0.000000,1024.000000) scale(0.100000,-0.100000)"
fill="#000000" stroke="none">
<path d="M5039 10086 c-2 -2 -24 -7 -49 -11 -24 -4 -52 -11 -62 -16 -10 -5
-18 -7 -18 -4 0 3 -13 -1 -30 -10 -16 -8 -32 -15 -35 -15 -5 1 -77 -33 -330
-155 -85 -41 -335 -161 -465 -223 -52 -25 -97 -46 -100 -47 -8 -2 -203 -94
-222 -105 -36 -20 -54 -29 -93 -46 -22 -9 -79 -36 -127 -60 -49 -24 -88 -40
-88 -36 0 4 -4 2 -8 -4 -4 -6 -45 -29 -92 -51 -47 -22 -116 -55 -155 -74 -38
-18 -73 -32 -77 -31 -5 1 -8 -2 -8 -8 0 -5 -6 -10 -12 -10 -7 0 -62 -24 -123
-54 -233 -114 -385 -186 -395 -186 -5 0 -10 -5 -10 -12 0 -6 -3 -9 -6 -5 -3 3
-21 -3 -40 -14 -19 -10 -41 -19 -49 -19 -8 0 -15 -3 -15 -8 0 -4 -15 -13 -33
-21 -17 -8 -86 -40 -152 -71 -126 -61 -191 -89 -202 -89 -3 1 -9 -3 -12 -8 -3
-5 -24 -17 -46 -28 -22 -10 -109 -51 -193 -92 -84 -40 -157 -73 -163 -73 -5 0
-9 -4 -9 -10 0 -5 -3 -9 -7 -8 -8 3 -42 -13 -273 -125 -80 -39 -147 -73 -150
-76 -3 -3 -23 -19 -45 -36 -44 -32 -135 -124 -135 -136 0 -4 -6 -14 -13 -21
-6 -7 -21 -31 -32 -53 -11 -22 -26 -48 -34 -57 -8 -10 -11 -18 -6 -18 4 0 3
-6 -3 -12 -6 -7 -11 -17 -11 -23 -1 -5 -6 -25 -12 -42 -6 -18 -8 -37 -4 -43 3
-5 1 -10 -5 -10 -7 0 -10 -6 -7 -12 2 -7 -2 -30 -9 -50 -11 -33 -18 -62 -28
-123 -2 -11 -8 -38 -14 -60 -6 -22 -13 -51 -16 -65 -2 -14 -5 -25 -6 -25 -1 0
-3 -9 -5 -20 -5 -30 -14 -69 -41 -184 -13 -57 -27 -117 -29 -134 -3 -17 -8
-33 -10 -37 -2 -4 -7 -20 -9 -36 -7 -35 -7 -36 -46 -204 -18 -74 -33 -142 -35
-150 -2 -8 -13 -53 -24 -100 -11 -47 -22 -97 -25 -110 -2 -14 -10 -47 -16 -75
-6 -27 -13 -57 -15 -65 -2 -8 -10 -43 -18 -78 -9 -34 -16 -65 -16 -67 -1 -3
-1 -6 -2 -7 -6 -20 -11 -47 -12 -65 0 -13 -5 -23 -9 -23 -4 0 -7 -3 -6 -7 2
-8 -5 -47 -18 -103 -3 -14 -7 -34 -9 -45 -2 -11 -11 -49 -20 -85 -9 -36 -19
-76 -21 -90 -3 -14 -7 -32 -11 -40 -3 -8 -7 -29 -8 -47 -2 -17 -5 -36 -8 -41
-5 -8 -42 -164 -52 -217 -2 -11 -6 -29 -8 -40 -11 -43 -46 -192 -51 -215 -3
-14 -9 -40 -15 -58 -5 -18 -10 -35 -10 -37 1 -8 -10 -57 -36 -165 -18 -80 -23
-102 -30 -137 -3 -16 -8 -39 -11 -53 -3 -14 -7 -32 -9 -40 -2 -8 -4 -15 -5
-15 -2 0 -9 -30 -14 -60 -3 -16 -36 -160 -52 -228 -2 -9 -6 -26 -9 -38 -2 -11
-6 -28 -9 -37 -3 -9 -7 -28 -10 -42 -3 -14 -8 -36 -11 -50 -3 -14 -8 -36 -11
-50 -3 -13 -14 -63 -26 -110 -34 -143 -29 -339 13 -430 25 -54 72 -145 78
-150 3 -3 17 -22 31 -42 14 -21 28 -38 33 -38 4 0 7 -4 7 -10 0 -5 10 -20 23
-33 33 -36 71 -82 82 -100 10 -15 324 -406 352 -437 7 -8 34 -42 60 -75 56
-70 74 -93 88 -109 6 -6 23 -29 40 -51 16 -22 37 -49 47 -60 9 -11 25 -30 35
-41 10 -12 29 -36 43 -54 14 -19 39 -50 55 -70 17 -20 41 -51 55 -69 14 -17
34 -42 45 -55 11 -13 34 -40 50 -62 17 -21 38 -46 47 -56 10 -10 18 -22 18
-26 0 -4 9 -14 20 -22 11 -8 20 -18 20 -22 0 -7 10 -21 54 -71 10 -12 30 -38
45 -57 14 -19 33 -42 41 -51 8 -9 24 -28 35 -43 11 -14 32 -41 48 -59 15 -17
30 -36 35 -42 4 -5 70 -89 147 -185 77 -96 144 -181 150 -188 5 -7 22 -27 38
-43 15 -16 27 -32 27 -35 0 -4 125 -160 140 -174 3 -3 17 -21 31 -40 15 -19
36 -46 48 -60 26 -31 8 -9 201 -250 90 -113 169 -210 175 -217 12 -14 17 -21
65 -83 19 -25 44 -54 55 -66 11 -11 34 -36 51 -55 77 -87 214 -163 354 -197
14 -3 954 -7 2090 -9 1818 -2 2072 -1 2125 12 83 21 90 23 90 25 0 1 11 3 24
6 13 2 36 13 51 24 15 11 29 17 32 14 3 -2 11 2 18 11 7 8 17 15 22 15 5 0 16
6 24 13 8 6 33 28 57 47 36 29 159 171 224 259 10 13 25 31 33 40 8 9 31 37
50 61 19 25 42 54 52 65 9 11 42 52 73 90 31 39 61 77 68 85 7 8 28 35 47 60
19 25 38 47 41 50 3 3 50 61 104 130 55 69 102 127 105 130 3 3 50 61 105 130
54 69 104 131 110 137 5 7 19 24 30 39 11 14 25 31 30 37 6 7 47 57 90 112 44
55 84 105 90 111 5 6 21 26 35 44 14 18 30 38 35 44 6 6 26 31 45 56 19 25 39
50 45 56 5 6 21 25 35 43 14 18 30 38 35 44 6 7 73 91 150 187 77 96 148 184
158 195 11 11 33 39 50 63 17 23 34 42 39 42 4 0 8 7 8 15 0 8 9 20 20 27 11
7 20 16 20 21 0 4 24 36 53 70 28 35 66 81 82 102 17 21 35 43 40 49 6 6 44
54 85 106 40 52 81 103 89 112 9 9 21 23 26 30 42 55 91 114 100 120 5 4 6 8
2 8 -4 0 6 13 23 30 16 16 30 32 30 35 0 4 7 14 16 22 9 9 34 41 57 72 23 31
48 62 55 69 6 7 12 20 12 28 0 8 4 14 8 14 5 0 21 30 35 68 71 182 72 297 1
581 -9 36 -17 73 -19 83 -2 10 -11 46 -19 79 -9 33 -14 65 -10 70 3 5 1 9 -3
9 -5 0 -9 8 -10 18 -2 24 -10 62 -22 100 -5 18 -10 35 -10 37 -1 3 -1 6 -2 8
0 1 -2 11 -4 22 -3 22 -9 45 -25 116 -6 26 -13 55 -15 65 -2 11 -4 20 -5 22
-3 3 -5 11 -14 62 -5 25 -11 49 -14 54 -3 6 -7 19 -8 30 -2 26 -6 42 -51 231
-20 83 -39 169 -44 192 -5 23 -16 71 -25 105 -9 35 -17 70 -18 78 -1 8 -5 26
-9 40 -4 14 -9 36 -11 50 -3 14 -13 59 -23 100 -10 41 -18 82 -18 90 0 8 -2
17 -5 20 -5 5 -33 125 -46 195 -3 17 -8 37 -11 45 -7 19 -9 25 -18 75 -8 46
-13 69 -15 73 -2 1 -4 7 -5 12 -1 6 -3 11 -4 13 -2 1 -4 13 -6 27 -3 24 -55
254 -81 355 -9 37 -55 240 -59 260 -2 11 -11 52 -20 90 -20 83 -24 103 -31
133 -2 12 -14 62 -26 110 -11 48 -22 96 -24 107 -2 11 -5 29 -8 40 -3 11 -11
45 -19 75 -15 63 -17 69 -18 73 0 1 -2 11 -4 22 -2 11 -13 61 -25 110 -11 50
-23 106 -26 125 -4 19 -12 46 -19 60 -7 14 -10 31 -8 38 3 6 -1 12 -8 12 -7 0
-9 3 -6 6 3 4 1 16 -5 28 -7 11 -11 24 -10 28 1 3 -5 12 -13 18 -8 7 -15 17
-15 23 0 13 -75 113 -111 148 -15 15 -45 40 -66 55 -21 16 -40 31 -43 34 -3 3
-27 17 -55 30 -27 14 -51 28 -53 33 -2 4 -9 7 -15 7 -12 0 -14 1 -292 135
-110 53 -205 98 -211 99 -7 1 -18 7 -25 13 -8 6 -31 16 -51 24 -21 7 -38 17
-38 21 0 4 -3 7 -7 6 -9 -2 -47 16 -296 136 -87 42 -160 76 -163 76 -3 0 -19
9 -35 21 -16 11 -29 17 -29 14 0 -4 -11 0 -25 9 -14 9 -25 13 -25 9 0 -5 -4
-3 -8 2 -4 6 -59 35 -122 65 -63 29 -187 88 -275 130 -279 134 -293 140 -304
140 -6 0 -11 4 -11 8 0 5 -18 15 -40 22 -22 7 -40 17 -40 22 0 4 -3 7 -7 6 -5
-1 -37 12 -73 29 -141 68 -350 168 -450 215 -58 28 -148 71 -200 96 -52 25
-97 47 -100 47 -3 1 -57 26 -120 57 -258 125 -329 158 -338 158 -5 0 -15 7
-22 15 -7 8 -16 12 -21 9 -5 -3 -9 0 -9 7 0 7 -3 10 -6 6 -3 -3 -40 12 -82 34
-133 69 -242 101 -358 105 -55 2 -103 2 -105 0z"/>
</g>
</svg>
